<svg xmlns="http://www.w3.org/2000/svg" xmlns:xlink="http://www.w3.org/1999/xlink" xmlns:lucid="lucid" width="1000" height="811"><g transform="translate(-420 -49)" lucid:page-tab-id="0_0"><path d="M540 425c0-2.76 2.24-5 5-5h150c2.76 0 5 2.24 5 5v50c0 2.76-2.24 5-5 5H545c-2.76 0-5-2.24-5-5z" stroke="#000" stroke-width="2" fill="#fff"/><use xlink:href="#a" transform="matrix(1,0,0,1,540,420) translate(52.529999999999994 33.15)"/><path d="M540 485c0-2.76 2.24-5 5-5h150c2.76 0 5 2.24 5 5v50c0 2.76-2.24 5-5 5H545c-2.76 0-5-2.24-5-5z" stroke="#000" stroke-width="2" fill="#fff"/><use xlink:href="#b" transform="matrix(1,0,0,1,540,480) translate(55.754999999999995 33.15)"/><path d="M1140 605c0-2.76 2.24-5 5-5h150c2.76 0 5 2.24 5 5v70c0 2.76-2.24 5-5 5h-150c-2.76 0-5-2.24-5-5z" stroke="#000" stroke-width="2" fill="#fff"/><use xlink:href="#c" transform="matrix(1,0,0,1,1140,600) translate(28.10499999999999 44.4)"/><use xlink:href="#d" transform="matrix(1,0,0,1,1140,600) translate(115.95500000000001 44.4)"/><path d="M1164 804c-13.25 0-24-10.75-24-24 0-10.6 6.5-19.55 16.58-22.83C1156 726 1196 720 1212 732c8-18 48-12 48 6 24-6 48 18 32 48 16 24 0 54-32 42-8 15.6-40 15.6-48 0-16 12-48 6-48-24z" stroke="#000" stroke-width="2" fill="#fff"/><use xlink:href="#e" transform="matrix(1,0,0,1,1140,720) translate(49.029999999999994 63.15)"/><path d="M840 605c0-2.76 2.24-5 5-5h150c2.76 0 5 2.24 5 5v70c0 2.76-2.24 5-5 5H845c-2.76 0-5-2.24-5-5z" stroke="#000" stroke-width="2" fill="#fff"/><use xlink:href="#f" transform="matrix(1,0,0,1,840,600) translate(68.355 44.4)"/><path d="M540 605c0-2.76 2.24-5 5-5h150c2.76 0 5 2.24 5 5v70c0 2.76-2.24 5-5 5H545c-2.76 0-5-2.24-5-5z" stroke="#000" stroke-width="2" fill="#fff"/><use xlink:href="#f" transform="matrix(1,0,0,1,540,600) translate(68.355 44.4)"/><path d="M1100 405c0-2.76 2.24-5 5-5h230c2.76 0 5 2.24 5 5v290c0 2.76-2.24 5-5 5h-230c-2.76 0-5-2.24-5-5z" fill-opacity="0"/><path d="M1143.33 400h38.34m19.16 0h38.34m19.16 0h38.34m19.16 0H1335l2.95.96 1.8 2.46.25 1.58v19.33m0 19.34v38.66m0 19.34v38.66m0 19.34v38.66m0 19.34v38.66m0 19.34V695l-.96 2.95-2.46 1.8-1.58.25h-19.17m-19.16 0h-38.34m-19.16 0h-38.34m-19.16 0h-38.34m-19.16 0H1105l-2.95-.96-1.8-2.46-.25-1.58v-19.33m0-19.34v-38.66m0-19.34v-38.66m0-19.34v-38.66m0-19.34v-38.66m0-19.34V405l.96-2.95 2.46-1.8 1.58-.25h19.17" stroke="#000" stroke-width="2" fill="none"/><path d="M840 425c0-2.76 2.24-5 5-5h150c2.76 0 5 2.24 5 5v50c0 2.76-2.24 5-5 5H845c-2.76 0-5-2.24-5-5z" stroke="#000" stroke-width="2" fill="#fff"/><use xlink:href="#a" transform="matrix(1,0,0,1,840,420) translate(52.529999999999994 33.15)"/><path d="M840 485c0-2.76 2.24-5 5-5h150c2.76 0 5 2.24 5 5v50c0 2.76-2.24 5-5 5H845c-2.76 0-5-2.24-5-5z" stroke="#000" stroke-width="2" fill="#fff"/><use xlink:href="#b" transform="matrix(1,0,0,1,840,480) translate(55.754999999999995 33.15)"/><path d="M1140 425c0-2.76 2.24-5 5-5h150c2.76 0 5 2.24 5 5v50c0 2.76-2.24 5-5 5h-150c-2.76 0-5-2.24-5-5z" stroke="#000" stroke-width="2" fill="#fff"/><use xlink:href="#a" transform="matrix(1,0,0,1,1140,420) translate(52.529999999999994 33.15)"/><path d="M1140 485c0-2.76 2.24-5 5-5h150c2.76 0 5 2.24 5 5v50c0 2.76-2.24 5-5 5h-150c-2.76 0-5-2.24-5-5z" stroke="#000" stroke-width="2" fill="#fff"/><use xlink:href="#b" transform="matrix(1,0,0,1,1140,480) translate(55.754999999999995 33.15)"/><path d="M1220 721.92V682" stroke="#000" stroke-width="2" fill="none"/><path d="M1221 722.48l-.6.24-1.4.72v-1.54h2zM1221 682.03h-2V681h2z"/><path d="M1191.3 598v-56" stroke="#000" stroke-width="2" fill="none"/><path d="M1192.3 599h-2v-1.03h2zM1192.3 542.03h-2V541h2z"/><path d="M1245.4 598v-56" stroke="#000" stroke-width="2" fill="none"/><path d="M1246.4 599h-2v-1.03h2zM1246.4 542.03h-2V541h2z"/><path d="M947.83 598v-56" stroke="#000" stroke-width="2" fill="none"/><path d="M948.83 599h-2v-1.03h2zM948.83 542.03h-2V541h2z"/><path d="M900.48 598v-56" stroke="#000" stroke-width="2" fill="none"/><path d="M901.48 599h-2v-1.03h2zM901.48 542.03h-2V541h2z"/><path d="M602.92 542v56" stroke="#000" stroke-width="2" fill="none"/><path d="M603.92 542.03h-2V541h2zM603.92 599h-2v-1.03h2z"/><path d="M643.5 598v-56" stroke="#000" stroke-width="2" fill="none"/><path d="M644.5 599h-2v-1.03h2zM644.5 542.03h-2V541h2z"/><path d="M1345 670c-2.76 0-5-2.24-5-5V435c0-2.76 2.24-5 5-5h50c2.76 0 5 2.24 5 5v230c0 2.76-2.24 5-5 5z" stroke="#000" stroke-opacity="0" stroke-width="2" fill="#fff" fill-opacity="0"/><use xlink:href="#g" transform="matrix(6.123233995736766e-17,-1,1,6.123233995736766e-17,1340,670) translate(42.282777777777774 34.75)"/><use xlink:href="#h" transform="matrix(6.123233995736766e-17,-1,1,6.123233995736766e-17,1340,670) translate(118.8938888888889 34.75)"/><g fill="none"><path d="M581.1 120v75.46H540V120z"/><path d="M560.56 120v16.98l6.16 3.77-12.33 5.66 12.32 5.67-12.33 5.66 12.32 5.66-12.33 5.65 12.32 5.66-12.33 5.67 6.16 3.77v11.32" stroke="#000" stroke-width="2"/></g><g fill="none"><path d="M481.1 240v75.46H440V240z"/><path d="M460.56 240v16.98l6.16 3.77-12.33 5.66 12.32 5.67-12.33 5.66 12.32 5.66-12.33 5.65 12.32 5.66-12.33 5.67 6.16 3.77v11.32" stroke="#000" stroke-width="2"/></g><g fill="none"><path d="M1381.1 240v75.46H1340V240z"/><path d="M1360.56 240v16.98l6.16 3.77-12.33 5.66 12.32 5.67-12.33 5.66 12.32 5.66-12.33 5.65 12.32 5.66-12.33 5.67 6.16 3.77v11.32" stroke="#000" stroke-width="2"/></g><g fill="none"><path d="M583.94 250v75.46h-41.12V250z"/><path d="M563.38 250v16.98l6.17 3.77-12.34 5.66 12.35 5.67-12.34 5.66 12.35 5.66-12.34 5.65 12.35 5.66-12.34 5.67 6.18 3.77v11.32" stroke="#000" stroke-width="2"/></g><path d="M560.56 119V98.5" stroke="#000" stroke-width="2" fill="none"/><path d="M559.56 120v-1.03h2V120z"/><path d="M560.56 83.24l4.63 14.26h-9.28z" stroke="#000" stroke-width="2" fill="#fff"/><path d="M582.27 165c0-2.76 2.24-5 5-5h65.46c2.76 0 5 2.24 5 5v50c0 2.76-2.24 5-5 5h-65.46c-2.76 0-5-2.24-5-5z" stroke="#000" stroke-opacity="0" stroke-width="2" fill="#fff" fill-opacity="0"/><use xlink:href="#i" transform="matrix(1,0,0,1,582.2683479494751,160) translate(27.912407407407407 36.333333333333336)"/><path d="M582.27 285c0-2.76 2.24-5 5-5h65.46c2.76 0 5 2.24 5 5v50c0 2.76-2.24 5-5 5h-65.46c-2.76 0-5-2.24-5-5z" stroke="#000" stroke-opacity="0" stroke-width="2" fill="#fff" fill-opacity="0"/><use xlink:href="#j" transform="matrix(1,0,0,1,582.2683479494751,280) translate(27.912407407407407 36.333333333333336)"/><path d="M460.56 239v-16.27c0-2.76 2.24-5 5-5h90c2.76 0 5-2.24 5-5v-16.27" stroke="#000" stroke-width="2" fill="none"/><path d="M459.56 240v-1.03h2V240zM561.56 196.5h-2v-1.04h2z"/><path d="M1360.56 239v-16.27c0-2.76-2.24-5-5-5h-790c-2.76 0-5-2.24-5-5v-16.27" stroke="#000" stroke-width="2" fill="none"/><path d="M1359.56 240v-1.03h2V240zM561.56 196.5h-2v-1.04h2z"/><path d="M1360.56 316.46V335c0 2.76-2.24 5-5 5H568.38c-2.76 0-5-2.24-5-5v-8.54" stroke="#000" stroke-width="2" fill="none"/><path d="M1361.56 316.5h-2v-1.04h2zM564.38 326.5h-2v-1.04h2z"/><path d="M460.56 316.46V335c0 2.76 2.24 5 5 5h92.82c2.76 0 5-2.24 5-5v-8.54" stroke="#000" stroke-width="2" fill="none"/><path d="M461.56 316.5h-2v-1.04h2zM564.38 326.5h-2v-1.04h2z"/><path d="M596.15 418v-73c-2.76 0-5-2.24-5-5s2.24-5 5-5h.26V218.74" stroke="#000" stroke-width="2" fill="none"/><path d="M597.15 419h-2v-1.03h2z"/><path d="M596.4 218.76v-1.03M620 418v-77" stroke="#000" stroke-width="2" fill="none"/><path d="M621 419h-2v-1.03h2zM621 341.03h-2V340h2z"/><path d="M888.8 418v-73c-2.75 0-5-2.24-5-5s2.25-5 5-5V218.73" stroke="#000" stroke-width="2" fill="none"/><path d="M889.8 419h-2v-1.03h2z"/><path d="M888.8 218.76v-1.03M920 418v-38.43c0-.04-.03-.07-.07-.07-.04 0-.07-.03-.07-.07V341" stroke="#000" stroke-width="2" fill="none"/><path d="M921 419h-2v-1.03h2z"/><path d="M919.86 341.03V340M1179.15 418v-73c-2.76 0-5-2.24-5-5s2.24-5 5-5V218.73" stroke="#000" stroke-width="2" fill="none"/><path d="M1180.15 419h-2v-1.03h2z"/><path d="M1179.15 218.76v-1.03M1261.52 418v-37.48c0-.3-.23-.52-.52-.52" stroke="#000" stroke-width="2" fill="none"/><path d="M1262.52 419h-2v-1.03h2zM1261.03 381H1260v-2h1.03z"/><path d="M570 605c0-2.76 2.24-5 5-5h90c2.76 0 5 2.24 5 5v30c0 2.76-2.24 5-5 5h-90c-2.76 0-5-2.24-5-5z" stroke="#000" stroke-opacity="0" stroke-width="2" fill="#fff" fill-opacity="0"/><use xlink:href="#k" transform="matrix(1,0,0,1,570,600) translate(32.04203703703703 23.166666666666668)"/><path d="M1170 605c0-2.76 2.24-5 5-5h90c2.76 0 5 2.24 5 5v30c0 2.76-2.24 5-5 5h-90c-2.76 0-5-2.24-5-5z" stroke="#000" stroke-opacity="0" stroke-width="2" fill="#fff" fill-opacity="0"/><use xlink:href="#k" transform="matrix(1,0,0,1,1170,600) translate(32.04203703703703 23.166666666666668)"/><path d="M870 605c0-2.76 2.24-5 5-5h90c2.76 0 5 2.24 5 5v30c0 2.76-2.24 5-5 5h-90c-2.76 0-5-2.24-5-5z" stroke="#000" stroke-opacity="0" stroke-width="2" fill="#fff" fill-opacity="0"/><use xlink:href="#k" transform="matrix(1,0,0,1,870,600) translate(32.04203703703703 23.166666666666668)"/><path d="M563.38 249v-10.5" stroke="#000" stroke-width="2" fill="none"/><path d="M562.38 250v-1.03h2V250z"/><path d="M563.38 223.24l4.64 14.26h-9.27z" stroke="#000" stroke-width="2" fill="#fff"/><path d="M500 735c0-2.76 2.24-5 5-5h230c2.76 0 5 2.24 5 5v50c0 2.76-2.24 5-5 5H505c-2.76 0-5-2.24-5-5z" stroke="#000" stroke-opacity="0" stroke-width="2" fill="#fff" fill-opacity="0"/><use xlink:href="#l" transform="matrix(1,0,0,1,500,730) translate(59.060555555555545 37.01)"/><use xlink:href="#m" transform="matrix(1,0,0,1,500,730) translate(141.06055555555554 37.01)"/><path d="M1180 360h80v40h-80z" fill="none"/><path d="M1180 380h18l4-6 6 12 6-12 6 12 6-12 6 12 6-12 6 12 4-6h12" stroke="#000" stroke-width="2" fill="none"/><path d="M1188 388l64-14h-7.2m7.2 0l-6.4 3.2M1261 380c.3 0 .52-.23.52-.52V341" stroke="#000" stroke-width="2" fill="none"/><path d="M1261.03 381H1260v-2h1.03z"/><path d="M1261.52 341.03V340" stroke="#000" stroke-width="2" fill="none"/><defs><path d="M233-177c-1 41-23 64-60 70L243 0h-38l-65-103H63V0H30v-248c88 3 205-21 203 71zM63-129c60-2 137 13 137-47 0-61-80-42-137-45v92" id="n"/><path d="M185-189c-5-48-123-54-124 2 14 75 158 14 163 119 3 78-121 87-175 55-17-10-28-26-33-46l33-7c5 56 141 63 141-1 0-78-155-14-162-118-5-82 145-84 179-34 5 7 8 16 11 25" id="o"/><path d="M155-56V0h-30v-56H8v-25l114-167h33v167h35v25h-35zm-30-156c-27 46-58 90-88 131h88v-131" id="p"/><path d="M134-131c28 9 52 24 51 62-1 50-34 73-85 73S17-19 16-69c0-36 21-54 49-61-75-25-45-126 34-121 46 3 78 18 79 63 0 33-17 51-44 57zm-34-11c31 1 46-15 46-44 0-28-17-43-47-42-29 0-46 13-45 42 1 28 16 44 46 44zm1 122c35 0 51-18 51-52 0-30-18-46-53-46-33 0-51 17-51 47 0 34 19 51 53 51" id="q"/><path d="M54-142c48-35 137-8 131 61C196 18 31 33 14-55l32-4c7 23 22 37 52 37 35-1 51-22 54-58 4-55-73-65-99-34H22l8-134h141v27H59" id="r"/><g id="a"><use transform="matrix(0.05,0,0,0.05,0,0)" xlink:href="#n"/><use transform="matrix(0.05,0,0,0.05,12.950000000000001,0)" xlink:href="#o"/><use transform="matrix(0.05,0,0,0.05,24.950000000000003,0)" xlink:href="#p"/><use transform="matrix(0.05,0,0,0.05,34.95,0)" xlink:href="#q"/><use transform="matrix(0.05,0,0,0.05,44.95,0)" xlink:href="#r"/></g><path d="M232-93c-1 65-40 97-104 97C67 4 28-28 28-90v-158h33c8 89-33 224 67 224 102 0 64-133 71-224h33v155" id="s"/><path d="M205 0l-28-72H64L36 0H1l101-248h38L239 0h-34zm-38-99l-47-123c-12 45-31 82-46 123h93" id="t"/><path d="M127-220V0H93v-220H8v-28h204v28h-85" id="u"/><g id="b"><use transform="matrix(0.05,0,0,0.05,0,0)" xlink:href="#s"/><use transform="matrix(0.05,0,0,0.05,12.950000000000001,0)" xlink:href="#t"/><use transform="matrix(0.05,0,0,0.05,24.950000000000003,0)" xlink:href="#n"/><use transform="matrix(0.05,0,0,0.05,37.550000000000004,0)" xlink:href="#u"/></g><path d="M141-36C126-15 110 5 73 4 37 3 15-17 15-53c-1-64 63-63 125-63 3-35-9-54-41-54-24 1-41 7-42 31l-33-3c5-37 33-52 76-52 45 0 72 20 72 64v82c-1 20 7 32 28 27v20c-31 9-61-2-59-35zM48-53c0 20 12 33 32 33 41-3 63-29 60-74-43 2-92-5-92 41" id="v"/><path d="M135-143c-3-34-86-38-87 0 15 53 115 12 119 90S17 21 10-45l28-5c4 36 97 45 98 0-10-56-113-15-118-90-4-57 82-63 122-42 12 7 21 19 24 35" id="w"/><path d="M115-194c55 1 70 41 70 98S169 2 115 4C84 4 66-9 55-30l1 105H24l-1-265h31l2 30c10-21 28-34 59-34zm-8 174c40 0 45-34 45-75s-6-73-45-74c-42 0-51 32-51 76 0 43 10 73 51 73" id="x"/><path d="M115-194c53 0 69 39 70 98 0 66-23 100-70 100C84 3 66-7 56-30L54 0H23l1-261h32v101c10-23 28-34 59-34zm-8 174c40 0 45-34 45-75 0-40-5-75-45-74-42 0-51 32-51 76 0 43 10 73 51 73" id="y"/><path d="M100-194c63 0 86 42 84 106H49c0 40 14 67 53 68 26 1 43-12 49-29l28 8c-11 28-37 45-77 45C44 4 14-33 15-96c1-61 26-98 85-98zm52 81c6-60-76-77-97-28-3 7-6 17-6 28h103" id="z"/><path d="M114-163C36-179 61-72 57 0H25l-1-190h30c1 12-1 29 2 39 6-27 23-49 58-41v29" id="A"/><path d="M179-190L93 31C79 59 56 82 12 73V49c39 6 53-20 64-50L1-190h34L92-34l54-156h33" id="B"/><g id="c"><use transform="matrix(0.05,0,0,0.05,0,0)" xlink:href="#n"/><use transform="matrix(0.05,0,0,0.05,12.950000000000001,0)" xlink:href="#v"/><use transform="matrix(0.05,0,0,0.05,22.950000000000003,0)" xlink:href="#w"/><use transform="matrix(0.05,0,0,0.05,31.950000000000003,0)" xlink:href="#x"/><use transform="matrix(0.05,0,0,0.05,41.95,0)" xlink:href="#y"/><use transform="matrix(0.05,0,0,0.05,51.95,0)" xlink:href="#z"/><use transform="matrix(0.05,0,0,0.05,61.95,0)" xlink:href="#A"/><use transform="matrix(0.05,0,0,0.05,67.9,0)" xlink:href="#A"/><use transform="matrix(0.05,0,0,0.05,73.85000000000001,0)" xlink:href="#B"/></g><path d="M30-248c87 1 191-15 191 75 0 78-77 80-158 76V0H30v-248zm33 125c57 0 124 11 124-50 0-59-68-47-124-48v98" id="C"/><path d="M24-231v-30h32v30H24zM24 0v-190h32V0H24" id="D"/><g id="d"><use transform="matrix(0.05,0,0,0.05,0,0)" xlink:href="#C"/><use transform="matrix(0.05,0,0,0.05,12,0)" xlink:href="#D"/></g><path d="M33 0v-248h34V0H33" id="E"/><path d="M117-194c89-4 53 116 60 194h-32v-121c0-31-8-49-39-48C34-167 62-67 57 0H25l-1-190h30c1 10-1 24 2 32 11-22 29-35 61-36" id="F"/><path d="M59-47c-2 24 18 29 38 22v24C64 9 27 4 27-40v-127H5v-23h24l9-43h21v43h35v23H59v120" id="G"/><g id="e"><use transform="matrix(0.05,0,0,0.05,0,0)" xlink:href="#E"/><use transform="matrix(0.05,0,0,0.05,5,0)" xlink:href="#F"/><use transform="matrix(0.05,0,0,0.05,15,0)" xlink:href="#G"/><use transform="matrix(0.05,0,0,0.05,20,0)" xlink:href="#z"/><use transform="matrix(0.05,0,0,0.05,30,0)" xlink:href="#A"/><use transform="matrix(0.05,0,0,0.05,35.95,0)" xlink:href="#F"/><use transform="matrix(0.05,0,0,0.05,45.95,0)" xlink:href="#z"/><use transform="matrix(0.05,0,0,0.05,55.95,0)" xlink:href="#G"/></g><path d="M146-31C134-1 83 18 56-10v85H25v-265h31c8 62-26 169 40 169 69 0 43-102 48-169h32v143c-1 18 6 31 23 24V0c-26 9-56 0-53-31" id="H"/><path d="M212-179c-10-28-35-45-73-45-59 0-87 40-87 99 0 60 29 101 89 101 43 0 62-24 78-52l27 14C228-24 195 4 139 4 59 4 22-46 18-125c-6-104 99-153 187-111 19 9 31 26 39 46" id="I"/><g id="f"><use transform="matrix(0.05,0,0,0.05,0,0)" xlink:href="#H"/><use transform="matrix(0.05,0,0,0.05,10.350000000000001,0)" xlink:href="#I"/></g><path d="M240 0l2-218c-23 76-54 145-80 218h-23L58-218 59 0H30v-248h44l77 211c21-75 51-140 76-211h43V0h-30" id="J"/><path d="M100-194c62-1 85 37 85 99 1 63-27 99-86 99S16-35 15-95c0-66 28-99 85-99zM99-20c44 1 53-31 53-75 0-43-8-75-51-75s-53 32-53 75 10 74 51 75" id="K"/><path d="M85-194c31 0 48 13 60 33l-1-100h32l1 261h-30c-2-10 0-23-3-31C134-8 116 4 85 4 32 4 16-35 15-94c0-66 23-100 70-100zm9 24c-40 0-46 34-46 75 0 40 6 74 45 74 42 0 51-32 51-76 0-42-9-74-50-73" id="L"/><path d="M84 4C-5 8 30-112 23-190h32v120c0 31 7 50 39 49 72-2 45-101 50-169h31l1 190h-30c-1-10 1-25-2-33-11 22-28 36-60 37" id="M"/><g id="g"><use transform="matrix(0.05555555555555555,0,0,0.05555555555555555,0,0)" xlink:href="#J"/><use transform="matrix(0.05555555555555555,0,0,0.05555555555555555,16.61111111111111,0)" xlink:href="#K"/><use transform="matrix(0.05555555555555555,0,0,0.05555555555555555,27.72222222222222,0)" xlink:href="#L"/><use transform="matrix(0.05555555555555555,0,0,0.05555555555555555,38.83333333333333,0)" xlink:href="#y"/><use transform="matrix(0.05555555555555555,0,0,0.05555555555555555,49.94444444444444,0)" xlink:href="#M"/><use transform="matrix(0.05555555555555555,0,0,0.05555555555555555,61.05555555555555,0)" xlink:href="#w"/></g><path d="M143 4C61 4 22-44 18-125c-5-107 100-154 193-111 17 8 29 25 37 43l-32 9c-13-25-37-40-76-40-61 0-88 39-88 99 0 61 29 100 91 101 35 0 62-11 79-27v-45h-74v-28h105v86C228-13 192 4 143 4" id="N"/><path d="M206 0h-36l-40-164L89 0H53L-1-190h32L70-26l43-164h34l41 164 42-164h31" id="O"/><g id="h"><use transform="matrix(0.05555555555555555,0,0,0.05555555555555555,0,0)" xlink:href="#N"/><use transform="matrix(0.05555555555555555,0,0,0.05555555555555555,15.555555555555555,0)" xlink:href="#v"/><use transform="matrix(0.05555555555555555,0,0,0.05555555555555555,26.666666666666664,0)" xlink:href="#G"/><use transform="matrix(0.05555555555555555,0,0,0.05555555555555555,32.22222222222222,0)" xlink:href="#z"/><use transform="matrix(0.05555555555555555,0,0,0.05555555555555555,43.33333333333333,0)" xlink:href="#O"/><use transform="matrix(0.05555555555555555,0,0,0.05555555555555555,57.72222222222222,0)" xlink:href="#v"/><use transform="matrix(0.05555555555555555,0,0,0.05555555555555555,68.83333333333333,0)" xlink:href="#B"/></g><path d="M199 0l-22-63H83L61 0H9l90-248h61L250 0h-51zm-33-102l-36-108c-10 38-24 72-36 108h72" id="P"/><use transform="matrix(0.07407407407407408,0,0,0.07407407407407408,0,0)" xlink:href="#P" id="i"/><path d="M182-130c37 4 62 22 62 59C244 23 116-4 24 0v-248c84 5 203-23 205 63 0 31-19 50-47 55zM76-148c40-3 101 13 101-30 0-44-60-28-101-31v61zm0 110c48-3 116 14 116-37 0-48-69-32-116-35v72" id="Q"/><use transform="matrix(0.07407407407407408,0,0,0.07407407407407408,0,0)" xlink:href="#Q" id="j"/><g id="k"><use transform="matrix(0.03703703703703704,0,0,0.03703703703703704,0,0)" xlink:href="#s"/><use transform="matrix(0.03703703703703704,0,0,0.03703703703703704,9.592592592592593,0)" xlink:href="#t"/><use transform="matrix(0.03703703703703704,0,0,0.03703703703703704,18.48148148148148,0)" xlink:href="#n"/><use transform="matrix(0.03703703703703704,0,0,0.03703703703703704,27.81481481481482,0)" xlink:href="#u"/></g><path d="M24 0v-261h32V0H24" id="R"/><g id="l"><use transform="matrix(0.1111111111111111,0,0,0.1111111111111111,0,0)" xlink:href="#C"/><use transform="matrix(0.1111111111111111,0,0,0.1111111111111111,26.666666666666664,0)" xlink:href="#z"/><use transform="matrix(0.1111111111111111,0,0,0.1111111111111111,48.888888888888886,0)" xlink:href="#A"/><use transform="matrix(0.1111111111111111,0,0,0.1111111111111111,62.11111111111111,0)" xlink:href="#R"/></g><path d="M190 0L58-211 59 0H30v-248h39L202-35l-2-213h31V0h-41" id="S"/><path d="M33 0v-38h34V0H33" id="T"/><g id="m"><use transform="matrix(0.1111111111111111,0,0,0.1111111111111111,0,0)" xlink:href="#S"/><use transform="matrix(0.1111111111111111,0,0,0.1111111111111111,28.777777777777775,0)" xlink:href="#T"/></g></defs></g></svg>